<?xml version="1.0" encoding="utf-8"?>
<!-- Generator: Adobe Illustrator 16.0.0, SVG Export Plug-In . SVG Version: 6.00 Build 0)  -->
<!DOCTYPE svg PUBLIC "-//W3C//DTD SVG 1.1//EN" "http://www.w3.org/Graphics/SVG/1.1/DTD/svg11.dtd">
<svg version="1.1" id="Layer_1" xmlns="http://www.w3.org/2000/svg" xmlns:xlink="http://www.w3.org/1999/xlink" x="0px" y="0px"
	 width="25px" height="24.999px" viewBox="0 0 25 24.999" enable-background="new 0 0 25 24.999" xml:space="preserve">
<g>
	<path fill="#4F76BB" d="M23.762,23.761H1.239V1.238h22.522V23.761z M25,0H0v24.999h25V0z"/>
	<path fill-rule="evenodd" clip-rule="evenodd" fill="#4F76BB" d="M14.519,8.193c0.403-0.014,0.805-0.004,1.209-0.004h0.166V6.093
		c-0.215-0.021-0.44-0.052-0.665-0.063c-0.413-0.019-0.827-0.039-1.24-0.03c-0.632,0.014-1.229,0.167-1.751,0.541
		c-0.599,0.432-0.927,1.035-1.052,1.75c-0.052,0.294-0.066,0.6-0.074,0.898c-0.011,0.471-0.001,0.939-0.001,1.411v0.177H9.106v2.34
		h1.993v5.883h2.436v-5.874h1.987c0.101-0.778,0.201-1.549,0.305-2.352c-0.16,0-0.303-0.001-0.445,0c-0.565,0.002-1.862,0-1.862,0
		s0.005-1.16,0.02-1.664C13.558,8.421,13.967,8.212,14.519,8.193"/>
</g>
</svg>
