<?xml version="1.0" encoding="utf-8"?>
<!-- Generator: Adobe Illustrator 16.0.0, SVG Export Plug-In . SVG Version: 6.00 Build 0)  -->
<!DOCTYPE svg PUBLIC "-//W3C//DTD SVG 1.1//EN" "http://www.w3.org/Graphics/SVG/1.1/DTD/svg11.dtd">
<svg version="1.1" id="Layer_1" xmlns="http://www.w3.org/2000/svg" xmlns:xlink="http://www.w3.org/1999/xlink" x="0px" y="0px"
	 width="25px" height="25px" viewBox="0 0 25 25" enable-background="new 0 0 25 25" xml:space="preserve">
<g display="none">
	<path display="inline" fill="#4F76BB" d="M23.762,23.761H1.239V1.238h22.523V23.761L23.762,23.761z M25,0H0v25h25V0z"/>
	<path display="inline" fill="#4F76BB" d="M14.52,8.193c0.402-0.014,0.805-0.004,1.209-0.004h0.166V6.093
		c-0.215-0.021-0.44-0.052-0.666-0.063c-0.412-0.02-0.826-0.039-1.24-0.03c-0.631,0.014-1.229,0.167-1.75,0.541
		c-0.599,0.432-0.927,1.035-1.052,1.75c-0.052,0.294-0.066,0.6-0.074,0.898c-0.011,0.471-0.001,0.939-0.001,1.411v0.177H9.106v2.34
		h1.993V19h2.436v-5.873h1.986c0.102-0.778,0.201-1.549,0.306-2.353c-0.16,0-0.304-0.001-0.445,0c-0.565,0.002-1.862,0-1.862,0
		s0.006-1.16,0.021-1.664C13.559,8.421,13.967,8.212,14.52,8.193"/>
</g>
<path fill="#FC5345" d="M23.761,23.761H1.239V1.239h22.521V23.761z M25,0H0v25h25V0z"/>
<path fill="#FC5345" d="M10.436,11.607c-0.001,0.031-0.004,0.057-0.004,0.082c0,0.625,0.001,1.977,0.001,1.977h2.743
	c0,0.203-0.241,1.021-1.008,1.541c-0.448,0.305-0.953,0.445-1.488,0.479c-0.377,0.025-0.749-0.014-1.111-0.129
	c-1.145-0.367-1.995-1.402-2.112-2.662c-0.028-0.313-0.008-0.623,0.063-0.93c0.34-1.49,1.751-2.596,3.369-2.357
	c0.718,0.104,1.129,0.404,1.506,0.725c0.494-0.496,0.985-0.986,1.489-1.492c-0.122-0.088-0.404-0.375-0.907-0.666
	c-0.752-0.434-1.563-0.65-2.43-0.66c-0.164-0.002-0.328,0.008-0.49,0.014C9.769,7.539,9.488,7.587,9.211,7.66
	C8.104,7.941,7.184,8.523,6.463,9.412c-0.694,0.854-1.064,1.834-1.133,2.928c-0.03,0.463,0.006,0.924,0.107,1.379
	c0.288,1.27,0.954,2.293,2.005,3.063c0.813,0.596,1.729,0.912,2.734,0.969c0.565,0.029,1.128-0.023,1.679-0.166
	c1.027-0.27,1.88-0.805,2.52-1.658c0.929-1.234,1.153-2.816,0.879-4.318H10.436z"/>
<polygon fill="#FC5345" points="21.45,11.673 19.715,11.673 19.715,9.937 19.715,9.886 19.663,9.886 18.367,9.886 18.315,9.886 
	18.315,9.937 18.315,11.673 16.579,11.673 16.529,11.673 16.529,11.724 16.529,13.021 16.529,13.072 16.579,13.072 18.315,13.072 
	18.315,14.808 18.315,14.859 18.367,14.859 19.663,14.859 19.715,14.859 19.715,14.808 19.715,13.072 21.45,13.072 21.501,13.072 
	21.501,13.021 21.501,11.724 21.501,11.673 "/>
</svg>
