<?xml version="1.0" encoding="utf-8"?>
<!-- Generator: Adobe Illustrator 16.0.0, SVG Export Plug-In . SVG Version: 6.00 Build 0)  -->
<!DOCTYPE svg PUBLIC "-//W3C//DTD SVG 1.1//EN" "http://www.w3.org/Graphics/SVG/1.1/DTD/svg11.dtd">
<svg version="1.1" id="Layer_1" xmlns="http://www.w3.org/2000/svg" xmlns:xlink="http://www.w3.org/1999/xlink" x="0px" y="0px"
	 width="25px" height="24.999px" viewBox="0 0 25 24.999" enable-background="new 0 0 25 24.999" xml:space="preserve">
<g display="none">
	<path display="inline" fill="#4F76BB" d="M23.762,23.761H1.239V1.238h22.522V23.761z M25,0H0v24.999h25V0z"/>
	<path display="inline" fill-rule="evenodd" clip-rule="evenodd" fill="#4F76BB" d="M14.519,8.193
		c0.403-0.014,0.805-0.004,1.209-0.004h0.166V6.093c-0.215-0.021-0.44-0.052-0.665-0.063c-0.413-0.019-0.827-0.039-1.24-0.03
		c-0.632,0.014-1.229,0.167-1.751,0.541c-0.599,0.432-0.927,1.035-1.052,1.75c-0.052,0.294-0.066,0.6-0.074,0.898
		c-0.011,0.471-0.001,0.939-0.001,1.411v0.177H9.106v2.34h1.993v5.883h2.436v-5.874h1.987c0.101-0.778,0.201-1.549,0.305-2.352
		c-0.16,0-0.303-0.001-0.445,0c-0.565,0.002-1.862,0-1.862,0s0.005-1.16,0.02-1.664C13.558,8.421,13.967,8.212,14.519,8.193"/>
</g>
<path fill="#34C4F3" d="M23.762,23.761H1.24V1.239h22.521V23.761z M25,0H0v24.999h25V0z"/>
<path fill-rule="evenodd" clip-rule="evenodd" fill="#34C4F3" d="M10.301,15.721c-1.496-0.052-2.431-1.125-2.678-1.997
	c0.416,0.079,0.825,0.063,1.233-0.037c0.01-0.003,0.021-0.01,0.042-0.02c-0.811-0.188-1.436-0.622-1.871-1.32
	c-0.288-0.465-0.426-0.973-0.421-1.531c0.404,0.216,0.827,0.337,1.281,0.35c-0.609-0.439-1.018-1.013-1.185-1.747
	C6.537,8.686,6.644,7.99,7.012,7.333c1.559,1.836,3.531,2.843,5.937,3.009c-0.016-0.115-0.033-0.215-0.046-0.316
	c-0.081-0.677,0.056-1.309,0.421-1.882c0.457-0.718,1.112-1.164,1.952-1.301c0.969-0.159,1.814,0.117,2.521,0.802
	c0.046,0.047,0.086,0.061,0.151,0.047c0.593-0.129,1.15-0.342,1.676-0.645c0.012-0.008,0.024-0.014,0.038-0.021
	c0.003-0.001,0.008-0.001,0.019-0.001c-0.227,0.67-0.642,1.186-1.232,1.566c0.558-0.061,1.09-0.209,1.604-0.431
	c0.004,0.005,0.008,0.009,0.012,0.013c-0.11,0.145-0.217,0.291-0.331,0.432c-0.306,0.377-0.657,0.708-1.047,0.994
	c-0.033,0.024-0.049,0.048-0.048,0.091c0.016,0.427,0,0.854-0.053,1.278c-0.111,0.895-0.36,1.748-0.742,2.564
	c-0.395,0.84-0.908,1.601-1.556,2.269c-1.098,1.133-2.418,1.864-3.957,2.204c-0.527,0.116-1.063,0.175-1.604,0.19
	c-1.66,0.049-3.194-0.363-4.606-1.236c-0.019-0.01-0.036-0.023-0.068-0.044c1.005,0.108,1.961-0.021,2.88-0.396
	C9.421,16.319,9.873,16.057,10.301,15.721"/>
</svg>
